<svg width="40" height="40" viewBox="0 0 40 40" fill="none" xmlns="http://www.w3.org/2000/svg">
<rect x="0.5" y="0.5" width="39" height="39" rx="1.5" stroke="#22242A"/>
<path d="M14 15.5C14 15.2239 14.2239 15 14.5 15H25.5C25.7761 15 26 15.2239 26 15.5V18.4979C26 18.774 25.7761 18.9979 25.5 18.9979H14.5C14.2239 18.9979 14 18.774 14 18.4979V15.5ZM15 16V17.9979H25V16H15Z" fill="black"/>
<path d="M21.4978 20.0005C21.2217 20.0005 20.9978 20.2244 20.9978 20.5005V24.5005C20.9978 24.7767 21.2217 25.0005 21.4978 25.0005H25.4978C25.7739 25.0005 25.9978 24.7767 25.9978 24.5005V20.5005C25.9978 20.2244 25.7739 20.0005 25.4978 20.0005H21.4978ZM21.9978 24.0005V21.0005H24.9978V24.0005H21.9978Z" fill="black"/>
<path d="M14.0006 21C14.0006 20.7239 14.2245 20.5 14.5006 20.5H19.5048C19.781 20.5 20.0048 20.7239 20.0048 21C20.0048 21.2761 19.781 21.5 19.5048 21.5H14.5006C14.2245 21.5 14.0006 21.2761 14.0006 21Z" fill="black"/>
<path d="M14.5006 23.5C14.2245 23.5 14.0006 23.7239 14.0006 24C14.0006 24.2761 14.2245 24.5 14.5006 24.5H19.5042C19.7804 24.5 20.0042 24.2761 20.0042 24C20.0042 23.7239 19.7804 23.5 19.5042 23.5H14.5006Z" fill="black"/>
<path d="M12 15.5C12 14.1193 13.1193 13 14.5 13H25.5C26.8807 13 28 14.1193 28 15.5V24.5C28 25.8807 26.8807 27 25.5 27H14.5C13.1193 27 12 25.8807 12 24.5V15.5ZM14.5 14C13.6716 14 13 14.6716 13 15.5V24.5C13 25.3284 13.6716 26 14.5 26H25.5C26.3284 26 27 25.3284 27 24.5V15.5C27 14.6716 26.3284 14 25.5 14H14.5Z" fill="black"/>
</svg>
