<svg width="280" height="150" viewBox="0 0 280 150" fill="none" xmlns="http://www.w3.org/2000/svg">
<rect width="280" height="150" rx="4" fill="#CDEDD5"/>
<path d="M131 68.25C131 67.8358 131.336 67.5 131.75 67.5H148.25C148.664 67.5 149 67.8358 149 68.25V72.7468C149 73.161 148.664 73.4968 148.25 73.4968H131.75C131.336 73.4968 131 73.161 131 72.7468V68.25ZM132.5 69V71.9968H147.5V69H132.5Z" fill="#9BDCAB"/>
<path d="M142.247 75.0007C141.833 75.0007 141.497 75.3366 141.497 75.7507V81.7507C141.497 82.165 141.833 82.5007 142.247 82.5007H148.247C148.661 82.5007 148.997 82.165 148.997 81.7507V75.7507C148.997 75.3366 148.661 75.0007 148.247 75.0007H142.247ZM142.997 81.0007V76.5007H147.497V81.0007H142.997Z" fill="#9BDCAB"/>
<path d="M131.001 76.5C131.001 76.0858 131.337 75.75 131.751 75.75H139.257C139.671 75.75 140.007 76.0858 140.007 76.5C140.007 76.9141 139.671 77.25 139.257 77.25H131.751C131.337 77.25 131.001 76.9141 131.001 76.5Z" fill="#9BDCAB"/>
<path d="M131.751 80.25C131.337 80.25 131.001 80.5858 131.001 81C131.001 81.4141 131.337 81.75 131.751 81.75H139.256C139.67 81.75 140.006 81.4141 140.006 81C140.006 80.5858 139.67 80.25 139.256 80.25H131.751Z" fill="#9BDCAB"/>
<path d="M128 68.25C128 66.1789 129.679 64.5 131.75 64.5H148.25C150.321 64.5 152 66.1789 152 68.25V81.75C152 83.8211 150.321 85.5 148.25 85.5H131.75C129.679 85.5 128 83.8211 128 81.75V68.25ZM131.75 66C130.507 66 129.5 67.0074 129.5 68.25V81.75C129.5 82.9926 130.507 84 131.75 84H148.25C149.493 84 150.5 82.9926 150.5 81.75V68.25C150.5 67.0074 149.493 66 148.25 66H131.75Z" fill="#9BDCAB"/>
</svg>
