<svg width="14" height="14" viewBox="0 0 14 14" fill="none" xmlns="http://www.w3.org/2000/svg">
<path d="M12.6642 11.8359L10.5001 9.68923C11.3401 8.6418 11.7469 7.31232 11.6369 5.97416C11.5268 4.63599 10.9082 3.39086 9.90829 2.49478C8.90837 1.59869 7.60312 1.11978 6.26094 1.15651C4.91876 1.19323 3.64165 1.74281 2.69223 2.69223C1.74281 3.64165 1.19323 4.91876 1.15651 6.26094C1.11978 7.60312 1.59869 8.90836 2.49478 9.90829C3.39086 10.9082 4.63599 11.5268 5.97416 11.6369C7.31232 11.7469 8.64181 11.3401 9.68923 10.5001L11.8359 12.6467C11.8901 12.7014 11.9546 12.7448 12.0257 12.7744C12.0968 12.804 12.1731 12.8193 12.2501 12.8193C12.3271 12.8193 12.4033 12.804 12.4744 12.7744C12.5455 12.7448 12.61 12.7014 12.6642 12.6467C12.7694 12.538 12.8281 12.3926 12.8281 12.2413C12.8281 12.09 12.7694 11.9447 12.6642 11.8359ZM6.41673 10.5001C5.60913 10.5001 4.81966 10.2606 4.14815 9.8119C3.47665 9.36322 2.95328 8.72549 2.64423 7.97936C2.33517 7.23322 2.2543 6.4122 2.41186 5.62011C2.56942 4.82802 2.95832 4.10044 3.52938 3.52938C4.10045 2.95832 4.82803 2.56942 5.62012 2.41186C6.4122 2.2543 7.23323 2.33517 7.97936 2.64422C8.72549 2.95328 9.36322 3.47665 9.8119 4.14815C10.2606 4.81965 10.5001 5.60913 10.5001 6.41673C10.5001 7.4997 10.0699 8.53831 9.30409 9.30408C8.53831 10.0699 7.4997 10.5001 6.41673 10.5001Z" fill="#9CADBD"/>
</svg>
