<svg width="20" height="20" viewBox="0 0 20 20" fill="none" xmlns="http://www.w3.org/2000/svg">
<rect x="0.5" y="0.5" width="19" height="19" rx="2.5" stroke="black"/>
<g clip-path="url(#clip0_261_3137)">
<path d="M7.26544 9.15192C7.39561 9.02175 7.60667 9.02175 7.73684 9.15192C7.85255 9.26763 7.86541 9.44725 7.77541 9.57715L7.73684 9.62332L6.79403 10.5661C6.01299 11.3472 6.01299 12.6135 6.79403 13.3946C7.54385 14.1444 8.74086 14.1743 9.52646 13.4845L9.62246 13.3946L10.5653 12.4518C10.6954 12.3216 10.9065 12.3216 11.0367 12.4518C11.1524 12.5675 11.1652 12.7471 11.0752 12.877L11.0367 12.9232L10.0939 13.866C9.05247 14.9074 7.36401 14.9073 6.32263 13.866C5.31595 12.8593 5.28239 11.248 6.22196 10.201L6.32263 10.0947L7.26544 9.15192ZM10.0939 6.32349C11.1352 5.28211 12.8237 5.28209 13.8651 6.32349C14.8718 7.33018 14.9053 8.94148 13.9658 9.98847L13.8651 10.0947L12.9223 11.0375C12.7921 11.1677 12.581 11.1677 12.4509 11.0375C12.3352 10.9218 12.3223 10.7422 12.4123 10.6123L12.4509 10.5661L13.3937 9.62332C14.1748 8.84225 14.1748 7.57597 13.3937 6.7949C12.6439 6.04509 11.4469 6.01508 10.6613 6.7049L10.5653 6.7949L9.62246 7.73771C9.49231 7.86786 9.28123 7.86788 9.15106 7.73771C9.03535 7.622 9.0225 7.44237 9.11248 7.31248L9.15106 7.2663L10.0939 6.32349ZM7.97255 11.7446L11.7438 7.97341C11.8739 7.84325 12.085 7.84323 12.2152 7.97341C12.3309 8.08914 12.3437 8.26874 12.2537 8.39862L12.2152 8.44481L8.44395 12.216C8.31378 12.3462 8.1027 12.3462 7.97255 12.216C7.85683 12.1003 7.84398 11.9207 7.93398 11.7908L7.97255 11.7446Z" fill="black"/>
</g>
<defs>
<clipPath id="clip0_261_3137">
<rect width="13.3333" height="13.3333" fill="white" transform="translate(0.666016 10.0947) rotate(-45)"/>
</clipPath>
</defs>
</svg>
