<svg width="12" height="15" viewBox="0 0 12 15" fill="none" xmlns="http://www.w3.org/2000/svg">
<path d="M0.598011 15V0.454545H5.92472C6.95691 0.454545 7.81155 0.625 8.48864 0.965909C9.16572 1.30208 9.67235 1.759 10.0085 2.33665C10.3447 2.90956 10.5128 3.55587 10.5128 4.27557C10.5128 4.88163 10.4015 5.39299 10.179 5.80966C9.95644 6.22159 9.65814 6.55303 9.28409 6.80398C8.91477 7.05019 8.50758 7.23011 8.0625 7.34375V7.4858C8.54545 7.50947 9.01657 7.66572 9.47585 7.95455C9.93987 8.23864 10.3234 8.64347 10.6264 9.16903C10.9295 9.6946 11.081 10.3338 11.081 11.0866C11.081 11.83 10.9058 12.4976 10.5554 13.0895C10.2098 13.6766 9.67472 14.143 8.95028 14.4886C8.22585 14.8295 7.30019 15 6.1733 15H0.598011ZM2.79261 13.1179H5.96023C7.01136 13.1179 7.7642 12.9143 8.21875 12.5071C8.6733 12.0999 8.90057 11.5909 8.90057 10.9801C8.90057 10.5208 8.78456 10.0994 8.55256 9.71591C8.32055 9.33239 7.98911 9.02699 7.55824 8.79972C7.1321 8.57244 6.62547 8.45881 6.03835 8.45881H2.79261V13.1179ZM2.79261 6.74716H5.73295C6.22538 6.74716 6.66809 6.65246 7.06108 6.46307C7.45881 6.27367 7.77367 6.00852 8.00568 5.66761C8.24242 5.32197 8.3608 4.91477 8.3608 4.44602C8.3608 3.8447 8.15009 3.34044 7.72869 2.93324C7.30729 2.52604 6.66099 2.32244 5.78977 2.32244H2.79261V6.74716Z" fill="white"/>
</svg>
