<svg width="22" height="22" viewBox="0 0 22 22" fill="none" xmlns="http://www.w3.org/2000/svg">
<path fill-rule="evenodd" clip-rule="evenodd" d="M4.74168 11.0004C4.74168 10.286 4.86028 9.60086 5.0722 8.95839L1.36485 6.12744C0.642291 7.59439 0.235291 9.24749 0.235291 11.0004C0.235291 12.752 0.641947 14.4039 1.36331 15.87L5.06859 13.0336C4.85873 12.394 4.74168 11.7115 4.74168 11.0004Z" fill="#FBBC05"/>
<path fill-rule="evenodd" clip-rule="evenodd" d="M11.2529 4.50003C12.8051 4.50003 14.2071 5.05003 15.3086 5.94997L18.5131 2.75C16.5604 1.04998 14.0569 0 11.2529 0C6.89965 0 3.15827 2.48944 1.36682 6.127L5.07399 8.95795C5.92821 6.36505 8.36317 4.50003 11.2529 4.50003Z" fill="#EA4335"/>
<path fill-rule="evenodd" clip-rule="evenodd" d="M11.2529 17.4999C8.36334 17.4999 5.92838 15.6349 5.07417 13.042L1.36682 15.8724C3.15827 19.5105 6.89965 21.9999 11.2529 21.9999C13.9397 21.9999 16.5049 21.0459 18.4301 19.2584L14.9111 16.5379C13.9182 17.1634 12.6678 17.4999 11.2529 17.4999Z" fill="#34A853"/>
<path fill-rule="evenodd" clip-rule="evenodd" d="M21.7665 11.0004C21.7665 10.3504 21.6663 9.65035 21.5161 9.00049H11.2517V13.2504H17.1601C16.8646 14.6995 16.0606 15.8134 14.9099 16.5384L18.4288 19.2588C20.4511 17.382 21.7665 14.5859 21.7665 11.0004Z" fill="#4285F4"/>
</svg>
