<svg width="5" height="16" viewBox="0 0 5 16" fill="none" xmlns="http://www.w3.org/2000/svg">
<path d="M0.625 16L2.44318 5.09091H4.11932L2.30114 16H0.625ZM3.79261 3.24432C3.46591 3.24432 3.18419 3.13305 2.94744 2.91051C2.71544 2.68797 2.59943 2.42045 2.59943 2.10795C2.59943 1.79545 2.71544 1.52794 2.94744 1.3054C3.18419 1.08286 3.46591 0.97159 3.79261 0.97159C4.11932 0.97159 4.39867 1.08286 4.63068 1.3054C4.86742 1.52794 4.9858 1.79545 4.9858 2.10795C4.9858 2.42045 4.86742 2.68797 4.63068 2.91051C4.39867 3.13305 4.11932 3.24432 3.79261 3.24432Z" fill="white"/>
</svg>
