<svg width="15" height="14" viewBox="0 0 15 14" fill="none" xmlns="http://www.w3.org/2000/svg">
<path d="M3.24264 5.75736C3.4379 5.5621 3.75449 5.5621 3.94975 5.75736C4.12331 5.93093 4.1426 6.20035 4.0076 6.39521L3.94975 6.46447L2.53553 7.87868C1.36396 9.05025 1.36396 10.9498 2.53553 12.1213C3.66026 13.246 5.45577 13.291 6.63417 12.2563L6.77817 12.1213L8.19239 10.7071C8.38765 10.5118 8.70426 10.5119 8.89949 10.7071C9.07309 10.8807 9.09234 11.1501 8.95732 11.3449L8.89949 11.4142L7.48528 12.8284C5.92318 14.3905 3.3905 14.3905 1.82843 12.8284C0.318401 11.3184 0.268069 8.90144 1.67742 7.33095L1.82843 7.17157L3.24264 5.75736ZM7.48528 1.51472C9.04735 -0.0473506 11.58 -0.0473791 13.1421 1.51472C14.6522 3.02475 14.7024 5.44171 13.2932 7.01219L13.1421 7.17157L11.7279 8.58579C11.5327 8.78102 11.216 8.78102 11.0208 8.58579C10.8472 8.41219 10.828 8.14278 10.963 7.94798L11.0208 7.87868L12.435 6.46447C13.6066 5.29286 13.6066 3.39343 12.435 2.22183C11.3103 1.09712 9.51478 1.05209 8.33641 2.08682L8.19239 2.22183L6.77817 3.63604C6.58294 3.83127 6.26633 3.8313 6.07107 3.63604C5.8975 3.46247 5.87823 3.19303 6.0132 2.9982L6.07107 2.92893L7.48528 1.51472ZM4.3033 9.64645L9.96015 3.98959C10.1554 3.79436 10.472 3.79433 10.6673 3.98959C10.8409 4.16319 10.8601 4.43259 10.7251 4.6274L10.6673 4.6967L5.01041 10.3536C4.81515 10.5488 4.49853 10.5488 4.3033 10.3536C4.12973 10.18 4.11045 9.91056 4.24545 9.7157L4.3033 9.64645Z" fill="white"/>
</svg>
