<svg width="11" height="15" viewBox="0 0 11 15" fill="none" xmlns="http://www.w3.org/2000/svg">
<path d="M7.91477 0.818182H9.14773V7.55966C9.14773 8.25568 8.98367 8.87713 8.65554 9.42401C8.33073 9.96757 7.87169 10.3968 7.27841 10.7116C6.68513 11.0232 5.98911 11.179 5.19034 11.179C4.39157 11.179 3.69555 11.0232 3.10227 10.7116C2.509 10.3968 2.0483 9.96757 1.72017 9.42401C1.39536 8.87713 1.23295 8.25568 1.23295 7.55966V0.818182H2.46591V7.46023C2.46591 7.95739 2.57528 8.39986 2.79403 8.78764C3.01278 9.17211 3.32434 9.47538 3.72869 9.69744C4.13636 9.91619 4.62358 10.0256 5.19034 10.0256C5.7571 10.0256 6.24432 9.91619 6.65199 9.69744C7.05966 9.47538 7.37121 9.17211 7.58665 8.78764C7.8054 8.39986 7.91477 7.95739 7.91477 7.46023V0.818182Z" fill="white"/>
<path d="M0 13.7841H10.3807V14.7386H0V13.7841Z" fill="white"/>
</svg>
