<svg width="19" height="15" viewBox="0 0 19 15" fill="none" xmlns="http://www.w3.org/2000/svg">
<path d="M17.4909 12.1746H6.90417C6.50328 12.1746 6.17773 12.5006 6.17773 12.9015C6.17773 13.3024 6.50328 13.6275 6.90417 13.6275H17.4909C17.8918 13.6275 18.2173 13.3024 18.2173 12.9015C18.2173 12.5006 17.8918 12.1746 17.4909 12.1746Z" fill="white"/>
<path d="M17.4909 6.53796H6.90417C6.50328 6.53796 6.17773 6.86308 6.17773 7.2644C6.17773 7.66615 6.50328 7.98999 6.90417 7.98999H17.4909C17.8918 7.98999 18.2173 7.66572 18.2173 7.2644C18.2169 6.86266 17.8918 6.53796 17.4909 6.53796Z" fill="white"/>
<path d="M6.90417 2.35333H17.4909C17.8918 2.35333 18.2173 2.02821 18.2173 1.62731C18.2173 1.22599 17.8918 0.900452 17.4909 0.900452H6.90417C6.50328 0.900452 6.17773 1.22599 6.17773 1.62731C6.17773 2.02821 6.50285 2.35333 6.90417 2.35333Z" fill="white"/>
<path d="M3.49842 0H1.69757C1.29625 0 0.970703 0.32512 0.970703 0.726016V2.52772C0.970703 2.92862 1.29625 3.25458 1.69757 3.25458H3.49842C3.89974 3.25458 4.22528 2.92862 4.22528 2.52772V0.726016C4.22528 0.32512 3.89974 0 3.49842 0Z" fill="white"/>
<path d="M3.49842 5.63666H1.69757C1.29625 5.63666 0.970703 5.96262 0.970703 6.36394V8.16522C0.970703 8.56612 1.29625 8.89124 1.69757 8.89124H3.49842C3.89974 8.89124 4.22528 8.56612 4.22528 8.16522V6.36394C4.22528 5.9622 3.89974 5.63666 3.49842 5.63666Z" fill="white"/>
<path d="M3.49842 11.2742H1.69757C1.29625 11.2742 0.970703 11.5993 0.970703 12.0002V13.8019C0.970703 14.2028 1.29625 14.5279 1.69757 14.5279H3.49842C3.89974 14.5279 4.22528 14.2028 4.22528 13.8019V12.0002C4.22528 11.5989 3.89974 11.2742 3.49842 11.2742Z" fill="white"/>
</svg>
